<svg width="32" height="32" viewBox="0 0 32 32" fill="none" xmlns="http://www.w3.org/2000/svg">
<rect width="32" height="32" rx="8" fill="#F9FBFD"/>
<path fill-rule="evenodd" clip-rule="evenodd" d="M5.29687 19.8289L9.82101 13.9609L11.0587 14.5966L14.0037 10L15.8389 12.1028L16.5218 11.5648L19.168 14.7923L21.0459 12.6406L26.2956 19.8289L21.238 13.7165L20.4697 16.2837L21.1739 18.3131L16.6498 12.3228L16.6008 14.3667L19.168 19.8289L14.3664 11.3692L15.7536 15.9414L13.8117 11.4914L12.7446 14.45L12.9579 12.5183L10.2904 19.4867L10.6104 16.5526L9.50081 15.3791L5.29687 19.8289Z" fill="#011C40"/>
<path fill-rule="evenodd" clip-rule="evenodd" d="M27.8165 20.7467C20.6535 15.1878 9.50441 22.8302 5 19.883C9.95233 24.0594 21.5278 16.9993 27.8165 20.7467Z" fill="#011C40"/>
<path fill-rule="evenodd" clip-rule="evenodd" d="M28 21.1839C22.38 17.7422 14.0215 22.5317 9.73764 21.4226C14.3796 23.5879 23.0216 18.7903 28 21.1839Z" fill="#011C40"/>
</svg>
